<svg width="30" height="27" viewBox="0 0 30 27" fill="none" xmlns="http://www.w3.org/2000/svg">
<path d="M1.11111 27C0.816426 27 0.533827 26.8815 0.325453 26.6705C0.117079 26.4595 0 26.1734 0 25.875V24.75C0 24.4516 0.117079 24.1655 0.325453 23.9545C0.533827 23.7435 0.816426 23.625 1.11111 23.625H28.8889C29.1836 23.625 29.4662 23.7435 29.6745 23.9545C29.8829 24.1655 30 24.4516 30 24.75V25.875C30 26.1734 29.8829 26.4595 29.6745 26.6705C29.4662 26.8815 29.1836 27 28.8889 27H1.11111ZM1.11111 15.1875C0.816426 15.1875 0.533827 15.069 0.325453 14.858C0.117079 14.647 0 14.3609 0 14.0625V12.9375C0 12.6391 0.117079 12.353 0.325453 12.142C0.533827 11.931 0.816426 11.8125 1.11111 11.8125H28.8889C29.1836 11.8125 29.4662 11.931 29.6745 12.142C29.8829 12.353 30 12.6391 30 12.9375V14.0625C30 14.3609 29.8829 14.647 29.6745 14.858C29.4662 15.069 29.1836 15.1875 28.8889 15.1875H1.11111ZM1.11111 3.375C0.816426 3.375 0.533827 3.25647 0.325453 3.0455C0.117079 2.83452 0 2.54837 0 2.25V1.125C0 0.826631 0.117079 0.540484 0.325453 0.329505C0.533827 0.118527 0.816426 0 1.11111 0H28.8889C29.1836 0 29.4662 0.118527 29.6745 0.329505C29.8829 0.540484 30 0.826631 30 1.125V2.25C30 2.54837 29.8829 2.83452 29.6745 3.0455C29.4662 3.25647 29.1836 3.375 28.8889 3.375H1.11111Z" fill="#333333"/>
</svg>
