<svg width="18" height="18" viewBox="0 0 18 18" fill="none" xmlns="http://www.w3.org/2000/svg">
<path d="M9.97178 0.0518166C8.89664 -0.216969 7.89848 0.596365 7.82584 1.64908C7.74421 2.83213 7.56777 3.91681 7.34352 4.56385C7.20348 4.96789 6.80506 5.7023 6.17489 6.40652C5.54727 7.10789 4.73158 7.73257 3.77654 7.99308C3.02118 8.19913 2.25 8.85367 2.25 9.81017V14.3113C2.25 15.2613 3.01762 15.9581 3.87891 16.0495C5.08209 16.177 5.63828 16.5166 6.20544 16.8628L6.25899 16.8955C6.56586 17.0825 6.90948 17.2884 7.35113 17.4405C7.79731 17.5941 8.31978 17.6856 9 17.6856H12.9375C13.9917 17.6856 14.7363 17.1479 15.1134 16.4881C15.2979 16.1651 15.3984 15.8061 15.3984 15.4619C15.3984 15.2905 15.3728 15.1108 15.312 14.9394C15.5386 14.6443 15.7405 14.2899 15.8618 13.9259C15.9852 13.5556 16.0547 13.0693 15.8654 12.6342C15.9432 12.4871 16.0014 12.3316 16.0448 12.1799C16.1316 11.876 16.1719 11.5418 16.1719 11.2168C16.1719 10.8918 16.1316 10.5576 16.0448 10.2537C16.006 10.1178 15.9552 9.97889 15.8891 9.84574C16.3331 9.20289 16.3599 8.49472 16.1523 7.89578C15.9214 7.22972 15.3859 6.65877 14.8029 6.46442C13.8498 6.14675 12.774 6.15407 11.9725 6.22693C11.7945 6.24311 11.6272 6.26281 11.4743 6.28374C12.0036 4.03618 11.6516 2.12852 11.4037 1.21051C11.2491 0.638457 10.7861 0.255399 10.2659 0.125341L9.97178 0.0518166ZM12.9375 16.5605H9C8.42547 16.5605 8.02906 16.4841 7.71741 16.3767C7.40123 16.2679 7.14808 16.1198 6.84442 15.9348L6.79952 15.9074C6.1753 15.5266 5.4513 15.0849 3.99754 14.9307C3.62312 14.891 3.375 14.6039 3.375 14.3113V9.81016C3.375 9.52402 3.62913 9.19938 4.07261 9.07841C5.3049 8.74226 6.29645 7.95771 7.01324 7.1567C7.72746 6.35856 8.21059 5.49745 8.40648 4.93225C8.67942 4.14475 8.86421 2.9433 8.94817 1.72651C8.9763 1.31891 9.35399 1.05698 9.69893 1.14321L9.99302 1.21674C10.1737 1.26191 10.2837 1.37845 10.3176 1.50388C10.5655 2.42162 10.9342 4.47927 10.1539 6.82016C10.0889 7.01493 10.1353 7.2296 10.2748 7.38023C10.4142 7.53082 10.6248 7.59345 10.8239 7.54375L10.8268 7.54304L10.8423 7.53935C10.8566 7.53597 10.8789 7.53082 10.9085 7.52429C10.9678 7.51124 11.056 7.49275 11.1679 7.47204C11.392 7.43053 11.7085 7.38056 12.0744 7.3473C12.8197 7.27954 13.7126 7.28685 14.4471 7.53168C14.6445 7.59748 14.9528 7.87029 15.0893 8.26419C15.2092 8.60997 15.1859 9.01665 14.7898 9.41279L14.392 9.81054L14.7898 10.2083C14.8376 10.2562 14.9071 10.3669 14.963 10.5627C15.0168 10.751 15.0469 10.9793 15.0469 11.2168C15.0469 11.4543 15.0168 11.6826 14.963 11.8709C14.9071 12.0667 14.8376 12.1774 14.7898 12.2253L14.392 12.623L14.7898 13.0208C14.8427 13.0737 14.9115 13.2193 14.7945 13.5702C14.6846 13.8998 14.4541 14.2484 14.2273 14.4753L13.8295 14.873L14.2273 15.2708C14.2331 15.2767 14.2734 15.3266 14.2734 15.4619C14.2734 15.5924 14.2333 15.7607 14.1366 15.9299C13.9512 16.2544 13.5708 16.5605 12.9375 16.5605Z" fill="#999999"/>
</svg>
