<svg width="40" height="40" viewBox="0 0 40 40" fill="none" xmlns="http://www.w3.org/2000/svg">
<path d="M38 17H2C0.89543 17 0 17.8954 0 19V21C0 22.1046 0.89543 23 2 23H38C39.1046 23 40 22.1046 40 21V19C40 17.8954 39.1046 17 38 17Z" fill="#333333"/>
<path d="M23 2V38C23 38.5304 22.7893 39.0391 22.4142 39.4142C22.0391 39.7893 21.5304 40 21 40H19C18.4696 40 17.9609 39.7893 17.5858 39.4142C17.2107 39.0391 17 38.5304 17 38V2C17 1.46957 17.2107 0.960859 17.5858 0.585786C17.9609 0.210714 18.4696 0 19 0L21 0C21.5304 0 22.0391 0.210714 22.4142 0.585786C22.7893 0.960859 23 1.46957 23 2Z" fill="#333333"/>
</svg>
