<svg width="18" height="18" viewBox="0 0 18 18" fill="none" xmlns="http://www.w3.org/2000/svg">
<path d="M7.82584 1.96353C7.89848 0.910818 8.89664 0.097484 9.97178 0.36627L10.2659 0.439794C10.7861 0.569853 11.2491 0.95291 11.4037 1.52497C11.6516 2.44298 12.0036 4.35063 11.4743 6.59819C11.6272 6.57727 11.7945 6.55757 11.9725 6.54138C12.774 6.46852 13.8498 6.4612 14.8029 6.77888C15.3859 6.97323 15.9214 7.54417 16.1523 8.21023C16.3599 8.80917 16.3331 9.51734 15.8891 10.1602C15.9552 10.2933 16.006 10.4323 16.0448 10.5681C16.1316 10.8721 16.1719 11.2063 16.1719 11.5313C16.1719 11.8563 16.1316 12.1905 16.0448 12.4944C16.0014 12.646 15.9432 12.8016 15.8654 12.9486C16.0547 13.3837 15.9852 13.87 15.8618 14.2404C15.7405 14.6043 15.5386 14.9588 15.312 15.2538C15.3728 15.4252 15.3984 15.605 15.3984 15.7764C15.3984 16.1205 15.2979 16.4796 15.1134 16.8025C14.7363 17.4624 13.9917 18 12.9375 18H9C8.31978 18 7.79731 17.9086 7.35113 17.7549C6.90948 17.6028 6.56586 17.3969 6.25899 17.2099L6.20544 17.1772C5.63828 16.831 5.08209 16.4915 3.87891 16.3639C3.01762 16.2726 2.25 15.5757 2.25 14.6257V10.1246C2.25 9.16812 3.02118 8.51359 3.77654 8.30754C4.73158 8.04702 5.54727 7.42234 6.17489 6.72098C6.80506 6.01675 7.20348 5.28234 7.34352 4.87831C7.56777 4.23126 7.74421 3.14658 7.82584 1.96353Z" fill="#999999"/>
</svg>
