<svg width="38" height="38" viewBox="0 0 38 38" fill="none" xmlns="http://www.w3.org/2000/svg">
<path d="M19 38C29.4934 38 38 29.4934 38 19C38 8.50659 29.4934 0 19 0C8.50659 0 0 8.50659 0 19C0 29.4934 8.50659 38 19 38Z" fill="white"/>
<path d="M18.84 34.68C27.5882 34.68 34.68 27.5882 34.68 18.84C34.68 10.0918 27.5882 3 18.84 3C10.0918 3 3 10.0918 3 18.84C3 27.5882 10.0918 34.68 18.84 34.68Z" stroke="#333333" stroke-width="2"/>
<path d="M9 17L23 3" stroke="#333333" stroke-width="2"/>
<path d="M19 14L27 6" stroke="#333333" stroke-width="2"/>
</svg>
