<svg width="18" height="19" viewBox="0 0 18 19" fill="none" xmlns="http://www.w3.org/2000/svg">
<path d="M15.75 2.125C16.3713 2.125 16.875 2.62868 16.875 3.25V12.25C16.875 12.8713 16.3713 13.375 15.75 13.375H12.9375C12.2293 13.375 11.5624 13.7084 11.1375 14.275L9 17.125L6.8625 14.275C6.43758 13.7084 5.7707 13.375 5.0625 13.375H2.25C1.62868 13.375 1.125 12.8713 1.125 12.25V3.25C1.125 2.62868 1.62868 2.125 2.25 2.125H15.75ZM2.25 1C1.00736 1 0 2.00736 0 3.25V12.25C0 13.4926 1.00736 14.5 2.25 14.5H5.0625C5.4166 14.5 5.75004 14.6667 5.9625 14.95L8.1 17.8C8.55 18.4 9.45 18.4 9.9 17.8L12.0375 14.95C12.25 14.6667 12.5834 14.5 12.9375 14.5H15.75C16.9926 14.5 18 13.4926 18 12.25V3.25C18 2.00736 16.9926 1 15.75 1H2.25Z" fill="#999999"/>
<path d="M3.375 4.9375C3.375 4.62684 3.62684 4.375 3.9375 4.375H14.0625C14.3732 4.375 14.625 4.62684 14.625 4.9375C14.625 5.24816 14.3732 5.5 14.0625 5.5H3.9375C3.62684 5.5 3.375 5.24816 3.375 4.9375ZM3.375 7.75C3.375 7.43934 3.62684 7.1875 3.9375 7.1875H14.0625C14.3732 7.1875 14.625 7.43934 14.625 7.75C14.625 8.06066 14.3732 8.3125 14.0625 8.3125H3.9375C3.62684 8.3125 3.375 8.06066 3.375 7.75ZM3.375 10.5625C3.375 10.2518 3.62684 10 3.9375 10H9.5625C9.87316 10 10.125 10.2518 10.125 10.5625C10.125 10.8732 9.87316 11.125 9.5625 11.125H3.9375C3.62684 11.125 3.375 10.8732 3.375 10.5625Z" fill="#999999"/>
</svg>
