<svg width="30" height="30" viewBox="0 0 30 30" fill="none" xmlns="http://www.w3.org/2000/svg">
<path d="M15 30C23.2843 30 30 23.2843 30 15C30 6.71573 23.2843 0 15 0C6.71573 0 0 6.71573 0 15C0 23.2843 6.71573 30 15 30Z" fill="#B3B3B3"/>
<path d="M12.5682 18.767V18.4773C12.5739 17.483 12.6619 16.6903 12.8324 16.0994C13.0085 15.5085 13.2642 15.0312 13.5994 14.6676C13.9347 14.304 14.3381 13.9744 14.8097 13.679C15.1619 13.4517 15.4773 13.2159 15.7557 12.9716C16.0341 12.7273 16.2557 12.4574 16.4205 12.1619C16.5852 11.8608 16.6676 11.5256 16.6676 11.1562C16.6676 10.7642 16.5739 10.4205 16.3864 10.125C16.1989 9.82955 15.946 9.60227 15.6278 9.44318C15.3153 9.28409 14.9688 9.20454 14.5881 9.20454C14.2188 9.20454 13.8693 9.28693 13.5398 9.4517C13.2102 9.6108 12.9403 9.84943 12.7301 10.1676C12.5199 10.4801 12.4063 10.8693 12.3892 11.3352H8.91193C8.94034 10.1989 9.21307 9.26136 9.73011 8.52273C10.2472 7.77841 10.9318 7.22443 11.7841 6.86079C12.6364 6.49148 13.5767 6.30682 14.6051 6.30682C15.7358 6.30682 16.7358 6.49432 17.6051 6.86932C18.4744 7.23864 19.1563 7.77557 19.6506 8.48011C20.1449 9.18466 20.392 10.0341 20.392 11.0284C20.392 11.6932 20.2813 12.2841 20.0597 12.8011C19.8438 13.3125 19.5398 13.767 19.1477 14.1648C18.7557 14.5568 18.2926 14.9119 17.7585 15.2301C17.3097 15.4972 16.9403 15.7756 16.6506 16.0653C16.3665 16.3551 16.1534 16.6903 16.0114 17.071C15.875 17.4517 15.804 17.9205 15.7983 18.4773V18.767H12.5682ZM14.2557 24.2216C13.6875 24.2216 13.2017 24.0227 12.7983 23.625C12.4006 23.2216 12.2045 22.7386 12.2102 22.1761C12.2045 21.6193 12.4006 21.142 12.7983 20.7443C13.2017 20.3466 13.6875 20.1477 14.2557 20.1477C14.7955 20.1477 15.2699 20.3466 15.679 20.7443C16.0881 21.142 16.2955 21.6193 16.3011 22.1761C16.2955 22.5511 16.196 22.8949 16.0028 23.2074C15.8153 23.5142 15.5682 23.7614 15.2614 23.9489C14.9545 24.1307 14.6193 24.2216 14.2557 24.2216Z" fill="white"/>
</svg>
