<svg width="22" height="36" viewBox="0 0 22 36" fill="none" xmlns="http://www.w3.org/2000/svg">
<path d="M15.351 26.2062C16.019 24.8322 16.699 23.3952 17.346 21.9612C17.506 21.6079 17.6633 21.2549 17.818 20.9022C17.8953 20.7262 17.972 20.5505 18.048 20.3752C18.2 20.0245 18.349 19.6759 18.495 19.3292C18.7143 18.8099 18.9243 18.2975 19.125 17.7922C19.393 17.1202 19.642 16.4652 19.868 15.8342C19.9813 15.5182 20.0883 15.2092 20.189 14.9072C20.34 14.4532 20.477 14.0162 20.597 13.5992C20.637 13.4599 20.675 13.3229 20.711 13.1882C20.784 12.9192 20.848 12.6582 20.905 12.4082C20.933 12.2832 20.959 12.1602 20.983 12.0402C21.03 11.8002 21.069 11.5712 21.099 11.3532C21.141 11.055 21.1634 10.7543 21.166 10.4532C21.1486 7.66372 20.0238 4.99539 18.0392 3.03512C16.0545 1.07485 13.3725 -0.0168305 10.583 0.000196223C7.79334 -0.0168299 5.11117 1.07499 3.12649 3.03547C1.14181 4.99596 0.0171865 7.66454 0 10.4542C0.00209816 10.7554 0.0244822 11.056 0.067 11.3542C0.097 11.5715 0.135667 11.8005 0.183 12.0412C0.207 12.1612 0.233 12.2839 0.261 12.4092C0.317 12.6592 0.382 12.9202 0.454 13.1892C0.49 13.3225 0.528 13.4595 0.568 13.6002C0.688 14.0182 0.824 14.4542 0.976 14.9082C1.07667 15.2102 1.18367 15.5192 1.297 15.8352C1.523 16.4662 1.772 17.1212 2.04 17.7932C2.24 18.2979 2.45 18.8102 2.67 19.3302C2.816 19.6769 2.965 20.0255 3.117 20.3762C3.19367 20.5515 3.27067 20.7272 3.348 20.9032C3.50333 21.2552 3.66067 21.6082 3.82 21.9622C4.467 23.3972 5.147 24.8342 5.815 26.2072C6.43 27.4712 7.035 28.6812 7.597 29.7852C9.283 33.0972 10.581 35.4552 10.581 35.4552C10.581 35.4552 11.881 33.0972 13.566 29.7852C14.128 28.6852 14.733 27.4712 15.349 26.2072L15.351 26.2062ZM4.349 10.0282C4.33393 8.79226 4.68666 7.57974 5.36237 6.54476C6.03808 5.50978 7.00625 4.69906 8.14383 4.21566C9.28141 3.73225 10.537 3.59798 11.7511 3.82991C12.9652 4.06184 14.0829 4.6495 14.9622 5.5182C15.8415 6.3869 16.4426 7.49741 16.6892 8.70859C16.9358 9.91977 16.8168 11.1769 16.3472 12.3203C15.8776 13.4636 15.0786 14.4415 14.0519 15.1297C13.0252 15.8179 11.817 16.1853 10.581 16.1852C9.7675 16.1902 8.96099 16.0349 8.20752 15.7282C7.45405 15.4215 6.76838 14.9693 6.18966 14.3976C5.61095 13.8258 5.15054 13.1457 4.83472 12.396C4.51889 11.6463 4.35384 10.8417 4.349 10.0282Z" fill="white"/>
</svg>
