<svg width="36" height="41" viewBox="0 0 36 41" fill="none" xmlns="http://www.w3.org/2000/svg">
<path d="M17.9997 3C31.8917 3 29.8607 26 33.8607 26H2.13867C6.12167 26 4.10767 3 17.9997 3Z" fill="#333333"/>
<path d="M4.5 28H31.5C32.881 28 35 28.119 35 29.5L36 30.5C36 31.163 35.7366 31.7989 35.2678 32.2678C34.7989 32.7366 34.163 33 33.5 33H2.5C1.83696 33 1.20107 32.7366 0.732233 32.2678C0.263392 31.7989 0 31.163 0 30.5L1 29.5C1 28.119 3.119 28 4.5 28Z" fill="#333333"/>
<path d="M18.0002 40C17.3304 40.0518 16.6573 39.958 16.0272 39.725C15.397 39.4921 14.8248 39.1255 14.3497 38.6504C13.8747 38.1754 13.5081 37.6032 13.2752 36.973C13.0422 36.3429 12.9484 35.6698 13.0002 35H23.0002C23.052 35.6698 22.9582 36.3429 22.7252 36.973C22.4922 37.6032 22.1257 38.1754 21.6506 38.6504C21.1756 39.1255 20.6033 39.4921 19.9732 39.725C19.3431 39.958 18.67 40.0518 18.0002 40Z" fill="#333333"/>
<path d="M18 6C19.6569 6 21 4.65685 21 3C21 1.34315 19.6569 0 18 0C16.3431 0 15 1.34315 15 3C15 4.65685 16.3431 6 18 6Z" fill="#333333"/>
</svg>
