<svg width="51" height="43" viewBox="0 0 51 43" fill="none" xmlns="http://www.w3.org/2000/svg">
<path d="M7 43V40H45V43H7ZM6.96301 38L3 11L15.481 19.555L26 5.00005L36.518 19.556L49 11L45 38H6.96301ZM47 8.00005C47 7.60449 47.1173 7.21786 47.337 6.88896C47.5568 6.56007 47.8692 6.30377 48.2346 6.15239C48.6001 6.00102 49.0022 5.96121 49.3902 6.03838C49.7782 6.11555 50.1345 6.30604 50.4142 6.58574C50.6939 6.86545 50.8844 7.22195 50.9615 7.60991C51.0387 7.99787 50.9992 8.39998 50.8478 8.76543C50.6964 9.13088 50.44 9.44313 50.1111 9.66289C49.7822 9.88265 49.3956 10 49 10C48.4696 10 47.9609 9.78943 47.5858 9.41435C47.2107 9.03928 47 8.53048 47 8.00005ZM0 8.00005C0 7.60449 0.117273 7.21786 0.337036 6.88896C0.556799 6.56007 0.869167 6.30377 1.23462 6.15239C1.60007 6.00102 2.00224 5.96121 2.3902 6.03838C2.77816 6.11555 3.13448 6.30604 3.41418 6.58574C3.69389 6.86545 3.88438 7.22195 3.96155 7.60991C4.03872 7.99787 3.99915 8.39998 3.84778 8.76543C3.6964 9.13088 3.44004 9.44313 3.11115 9.66289C2.78225 9.88265 2.39556 10 2 10C1.46957 10 0.960888 9.78943 0.585815 9.41435C0.210743 9.03928 0 8.53048 0 8.00005ZM24 2.00005C24 1.60449 24.1173 1.21786 24.337 0.888964C24.5568 0.560066 24.8692 0.303767 25.2346 0.152392C25.6001 0.00101653 26.0022 -0.0387923 26.3902 0.0383781C26.7782 0.115549 27.1345 0.306036 27.4142 0.585741C27.6939 0.865446 27.8844 1.22195 27.9615 1.60991C28.0387 1.99787 27.9992 2.39998 27.8478 2.76543C27.6964 3.13088 27.44 3.44313 27.1111 3.66289C26.7822 3.88265 26.3956 4.00005 26 4.00005C25.4696 4.00005 24.9609 3.78943 24.5858 3.41435C24.2107 3.03928 24 2.53048 24 2.00005Z" fill="#B8CCE1"/>
</svg>
