<svg width="41" height="40" viewBox="0 0 41 40" fill="none" xmlns="http://www.w3.org/2000/svg">
<path d="M16.7334 26.5402C18.8441 26.5401 20.8665 25.9072 22.5822 24.71C23.1239 24.3319 23.7097 24.0544 24.3155 23.8755C24.4944 23.2697 24.7718 22.684 25.1499 22.1422C27.9895 18.0731 27.4969 12.5661 23.9786 9.04782C22.0436 7.11279 19.4706 6.04712 16.7337 6.04712C13.9967 6.04712 11.4237 7.11279 9.48869 9.04782C7.55322 10.9833 6.4873 13.5566 6.4873 16.2936C6.4873 19.0304 7.55311 21.6033 9.489 23.539C11.4242 25.4744 13.997 26.5403 16.7334 26.5402ZM36.3312 39.9448L26.0158 29.6303C19.6809 34.0511 10.8986 33.4346 5.24605 27.7813C-1.09895 21.4372 -1.09895 11.1502 5.24605 4.80519C11.5901 -1.53891 21.8772 -1.5389 28.2213 4.80519C33.8746 10.4585 34.4911 19.2408 30.0703 25.5758L40.3857 35.8903L36.3312 39.9448Z" fill="#333333"/>
</svg>
