<svg width="41" height="40" viewBox="0 0 41 40" fill="none" xmlns="http://www.w3.org/2000/svg">
<path d="M16.7334 26.4931C18.8441 26.493 20.8665 25.8601 22.5822 24.6628C23.1239 24.2848 23.7097 24.0073 24.3155 23.8284C24.4944 23.2226 24.7718 22.6368 25.1499 22.095C27.9895 18.026 27.4969 12.519 23.9786 9.00071C22.0436 7.06567 19.4706 6 16.7337 6C13.9967 6 11.4237 7.06567 9.48869 9.00071C7.55322 10.9362 6.4873 13.5094 6.4873 16.2465C6.4873 18.9833 7.55311 21.5562 9.489 23.4918C11.4242 25.4273 13.997 26.4932 16.7334 26.4931ZM36.3312 39.8977L26.0158 29.5832C19.6809 34.004 10.8986 33.3875 5.24605 27.7342C-1.09895 21.3901 -1.09895 11.1031 5.24605 4.75807C11.5901 -1.58602 21.8772 -1.58602 28.2213 4.75807C33.8746 10.4114 34.4911 19.1937 30.0703 25.5287L40.3857 35.8432L36.3312 39.8977Z" fill="#333333"/>
</svg>
