<svg width="24" height="24" viewBox="0 0 24 24" fill="none" xmlns="http://www.w3.org/2000/svg">
<path d="M3.8 15.8C5.89868 15.8 7.6 14.0987 7.6 12C7.6 9.90133 5.89868 8.20001 3.8 8.20001C1.70132 8.20001 0 9.90133 0 12C0 14.0987 1.70132 15.8 3.8 15.8Z" fill="white"/>
<path d="M19.98 7.98002C22.1781 7.98002 23.96 6.19811 23.96 4.00002C23.96 1.80193 22.1781 0.0200195 19.98 0.0200195C17.7819 0.0200195 16 1.80193 16 4.00002C16 6.19811 17.7819 7.98002 19.98 7.98002Z" fill="white"/>
<path d="M19.98 23.98C22.1781 23.98 23.96 22.1981 23.96 20C23.96 17.8019 22.1781 16.02 19.98 16.02C17.7819 16.02 16 17.8019 16 20C16 22.1981 17.7819 23.98 19.98 23.98Z" fill="white"/>
<path d="M18 4L6 12L18 20" stroke="white" stroke-width="3" stroke-linecap="round" stroke-linejoin="round"/>
</svg>
