<svg width="18" height="18" viewBox="0 0 18 18" fill="none" xmlns="http://www.w3.org/2000/svg">
<path d="M9 4.09156L8.19365 3.26275C6.29876 1.31508 2.82841 1.98741 1.5754 4.43445C0.986101 5.58531 0.853594 7.24652 1.92858 9.36727C2.9639 11.4098 5.11613 13.8548 9 16.5189C12.8839 13.8548 15.0361 11.4098 16.0714 9.36727C17.1464 7.24652 17.0139 5.58531 16.4246 4.43445C15.1716 1.98741 11.7012 1.31508 9.80635 3.26275L9 4.09156ZM9 17.875C-8.24977 6.47696 3.6886 -2.42098 8.80236 2.28597C8.86944 2.34771 8.93535 2.4118 9 2.47825C9.06465 2.4118 9.13056 2.34772 9.19763 2.28598C14.3114 -2.42099 26.2498 6.47695 9 17.875Z" fill="#999999"/>
</svg>
