<svg width="18" height="18" viewBox="0 0 18 18" fill="none" xmlns="http://www.w3.org/2000/svg">
<path d="M7.875 15.75C7.875 15.75 6.75 15.75 6.75 14.625C6.75 13.5 7.875 10.125 12.375 10.125C16.875 10.125 18 13.5 18 14.625C18 15.75 16.875 15.75 16.875 15.75H7.875Z" fill="#999999"/>
<path d="M12.375 9C14.239 9 15.75 7.48896 15.75 5.625C15.75 3.76104 14.239 2.25 12.375 2.25C10.511 2.25 9 3.76104 9 5.625C9 7.48896 10.511 9 12.375 9Z" fill="#999999"/>
<path fill-rule="evenodd" clip-rule="evenodd" d="M5.86841 15.75C5.71001 15.4304 5.625 15.0515 5.625 14.625C5.625 13.1001 6.38894 11.5319 7.80292 10.44C7.18436 10.2421 6.46323 10.125 5.625 10.125C1.125 10.125 0 13.5 0 14.625C0 15.75 1.125 15.75 1.125 15.75H5.86841Z" fill="#999999"/>
<path d="M5.0625 9C6.6158 9 7.875 7.7408 7.875 6.1875C7.875 4.6342 6.6158 3.375 5.0625 3.375C3.5092 3.375 2.25 4.6342 2.25 6.1875C2.25 7.7408 3.5092 9 5.0625 9Z" fill="#999999"/>
</svg>
