<svg width="30" height="40" viewBox="0 0 30 40" fill="none" xmlns="http://www.w3.org/2000/svg">
<path fill-rule="evenodd" clip-rule="evenodd" d="M30 15C30 6.71573 23.2843 0 15 0C6.71573 0 0 6.71573 0 15C0 21.9042 4.29007 26.9016 8.92096 32.2961L8.92098 32.2961C10.9975 34.715 13.1425 37.2138 15 40C16.8575 37.2138 19.0025 34.715 21.079 32.2961L21.079 32.2961C25.7099 26.9016 30 21.9042 30 15ZM15.0001 22C18.8661 22 22.0001 18.866 22.0001 15C22.0001 11.134 18.8661 8 15.0001 8C11.1341 8 8.00008 11.134 8.00008 15C8.00008 18.866 11.1341 22 15.0001 22Z" fill="#66CCFF"/>
</svg>
