<svg width="36" height="40" viewBox="0 0 36 40" fill="none" xmlns="http://www.w3.org/2000/svg">
<path d="M18.0002 2.99902C31.8922 2.99902 29.8612 25.9911 33.8612 25.9911H2.13916C6.12216 25.9911 4.10816 2.99902 18.0002 2.99902Z" fill="#66CCFF"/>
<path d="M18.0001 39.9834C17.1986 40.0454 16.3931 39.9331 15.639 39.6544C14.885 39.3756 14.2002 38.9369 13.6317 38.3684C13.0632 37.7999 12.6245 37.1152 12.3458 36.3611C12.067 35.607 11.9547 34.8016 12.0167 34H23.9835C24.0455 34.8016 23.9333 35.607 23.6545 36.3611C23.3757 37.1152 22.937 37.7999 22.3685 38.3684C21.8001 38.9369 21.1153 39.3756 20.3612 39.6544C19.6071 39.9331 18.8017 40.0454 18.0001 39.9834Z" fill="#66CCFF"/>
<path d="M18.0003 5.99792C19.6571 5.99792 21.0003 4.65524 21.0003 2.99896C21.0003 1.34268 19.6571 0 18.0003 0C16.3434 0 15.0002 1.34268 15.0002 2.99896C15.0002 4.65524 16.3434 5.99792 18.0003 5.99792Z" fill="#66CCFF"/>
<rect y="28" width="36" height="4" rx="1" fill="#66CCFF"/>
</svg>
