<svg width="40" height="40" viewBox="0 0 40 40" fill="none" xmlns="http://www.w3.org/2000/svg">
<path fill-rule="evenodd" clip-rule="evenodd" d="M14.1293 32.3455C18.1635 32.8834 22.2534 31.8956 25.5938 29.5764L35.9348 39.8898L40 35.8354L29.658 25.5221C31.9826 22.1901 32.9721 18.1108 32.4317 14.0876C31.8913 10.0643 29.8601 6.38865 26.7382 3.78429C23.6163 1.17992 19.6299 -0.164383 15.5638 0.016073C11.4978 0.196529 7.64683 1.88867 4.76922 4.7593C1.8916 7.62992 0.195874 11.471 0.0159379 15.5262C-0.163999 19.5814 1.18489 23.5569 3.79701 26.6698C6.40912 29.7827 10.0952 31.8075 14.1293 32.3455ZM16.0541 26.947C21.8677 26.947 26.5806 22.2467 26.5806 16.4487C26.5806 10.6506 21.8677 5.95036 16.0541 5.95036C10.2405 5.95036 5.52766 10.6506 5.52766 16.4487C5.52766 22.2467 10.2405 26.947 16.0541 26.947Z" fill="#66CCFF"/>
</svg>
