<svg width="36" height="38" viewBox="0 0 36 38" fill="none" xmlns="http://www.w3.org/2000/svg">
<g clip-path="url(#clip0_2995_6779)">
<path d="M18.3672 15.5381V22.8848H28.2447C27.8162 25.2492 26.5305 27.2759 24.5713 28.627V33.3981H30.51C33.9794 30.0836 35.9794 25.2281 35.9794 19.4436C35.9794 18.0925 35.857 16.8048 35.6529 15.5592H18.3672V15.5381Z" fill="#3E82F1"/>
<path d="M18.3671 30.4426C13.5916 30.4426 9.53041 27.107 8.08143 22.6104H1.95898V27.5292C4.97939 33.7359 11.1835 38.0004 18.3671 38.0004C23.3263 38.0004 27.4896 36.2904 30.5304 33.3981L24.5916 28.627C22.9386 29.767 20.8365 30.4426 18.3671 30.4426Z" fill="#32A753"/>
<path d="M0 18.9996C0 22.0607 0.714286 24.974 1.95918 27.5285L8.10204 22.6096C7.73469 21.4696 7.53061 20.2451 7.53061 18.9996C7.53061 17.754 7.73469 16.5296 8.10204 15.3896V10.4707H1.95918C0.714286 13.0251 0 15.9385 0 18.9996Z" fill="#F9BB00"/>
<path d="M18.3671 7.55823C21.061 7.55823 23.4896 8.50823 25.3876 10.4082L30.6529 4.96156C27.4692 1.90045 23.3059 0.0215624 18.3671 0.0215624C11.1835 0.000451295 4.97939 4.2649 1.95898 10.4716L8.10184 15.3905C9.55082 10.8938 13.5916 7.55823 18.3876 7.55823H18.3671Z" fill="#E74235"/>
</g>
<defs>
<clipPath id="clip0_2995_6779">
<rect width="36" height="38" fill="white"/>
</clipPath>
</defs>
</svg>
