<svg width="46" height="40" viewBox="0 0 46 40" fill="none" xmlns="http://www.w3.org/2000/svg">
<path d="M1.7037 40C1.25185 40 0.818534 39.8244 0.499028 39.5118C0.179522 39.1993 0 38.7754 0 38.3333V36.6667C0 36.2246 0.179522 35.8007 0.499028 35.4882C0.818534 35.1756 1.25185 35 1.7037 35H44.2963C44.7481 35 45.1815 35.1756 45.501 35.4882C45.8205 35.8007 46 36.2246 46 36.6667V38.3333C46 38.7754 45.8205 39.1993 45.501 39.5118C45.1815 39.8244 44.7481 40 44.2963 40H1.7037ZM1.7037 22.5C1.25185 22.5 0.818534 22.3244 0.499028 22.0118C0.179522 21.6993 0 21.2754 0 20.8333V19.1667C0 18.7246 0.179522 18.3007 0.499028 17.9882C0.818534 17.6756 1.25185 17.5 1.7037 17.5H44.2963C44.7481 17.5 45.1815 17.6756 45.501 17.9882C45.8205 18.3007 46 18.7246 46 19.1667V20.8333C46 21.2754 45.8205 21.6993 45.501 22.0118C45.1815 22.3244 44.7481 22.5 44.2963 22.5H1.7037ZM1.7037 5C1.25185 5 0.818534 4.8244 0.499028 4.51184C0.179522 4.19928 0 3.77536 0 3.33333V1.66667C0 1.22464 0.179522 0.800716 0.499028 0.488156C0.818534 0.175595 1.25185 0 1.7037 0H44.2963C44.7481 0 45.1815 0.175595 45.501 0.488156C45.8205 0.800716 46 1.22464 46 1.66667V3.33333C46 3.77536 45.8205 4.19928 45.501 4.51184C45.1815 4.8244 44.7481 5 44.2963 5H1.7037Z" fill="#66CCFF"/>
</svg>
