<svg width="40" height="40" viewBox="0 0 40 40" fill="none" xmlns="http://www.w3.org/2000/svg">
<path fill-rule="evenodd" clip-rule="evenodd" d="M4.73908 0.575677L39.4254 35.2621C40.1917 36.0283 40.1917 37.2707 39.4254 38.037L38.0379 39.4245C37.2717 40.1907 36.0293 40.1907 35.2631 39.4245L0.576675 4.73802C-0.189621 3.97175 -0.189621 2.72943 0.576675 1.96312L1.96414 0.575677C2.73044 -0.19059 3.97274 -0.19059 4.73908 0.575677Z" fill="#333333"/>
<path fill-rule="evenodd" clip-rule="evenodd" d="M39.4233 4.73712L4.73695 39.4234C3.97069 40.1897 2.72828 40.1897 1.96206 39.4234L0.574526 38.036C-0.191652 37.2698 -0.191652 36.0274 0.574526 35.2612L35.261 0.574722C36.0273 -0.191574 37.2696 -0.191574 38.0359 0.574722L39.4233 1.96219C40.1896 2.72848 40.1896 3.97079 39.4233 4.73712Z" fill="#333333"/>
</svg>
