<svg width="54" height="48" viewBox="0 0 54 48" fill="none" xmlns="http://www.w3.org/2000/svg">
<path d="M2 48C1.46957 48 0.960888 47.7893 0.585815 47.4142C0.210743 47.0391 0 46.5304 0 46V44C0 43.4696 0.210743 42.9609 0.585815 42.5858C0.960888 42.2107 1.46957 42 2 42H52C52.5304 42 53.0391 42.2107 53.4142 42.5858C53.7893 42.9609 54 43.4696 54 44V46C54 46.5304 53.7893 47.0391 53.4142 47.4142C53.0391 47.7893 52.5304 48 52 48H2ZM2 27C1.46957 27 0.960888 26.7893 0.585815 26.4142C0.210743 26.0391 0 25.5304 0 25V23C0 22.4696 0.210743 21.9609 0.585815 21.5858C0.960888 21.2107 1.46957 21 2 21H52C52.5304 21 53.0391 21.2107 53.4142 21.5858C53.7893 21.9609 54 22.4696 54 23V25C54 25.5304 53.7893 26.0391 53.4142 26.4142C53.0391 26.7893 52.5304 27 52 27H2ZM2 6C1.46957 6 0.960888 5.78929 0.585815 5.41421C0.210743 5.03914 0 4.53043 0 4V2C0 1.46957 0.210743 0.96086 0.585815 0.585787C0.960888 0.210714 1.46957 0 2 0H52C52.5304 0 53.0391 0.210714 53.4142 0.585787C53.7893 0.96086 54 1.46957 54 2V4C54 4.53043 53.7893 5.03914 53.4142 5.41421C53.0391 5.78929 52.5304 6 52 6H2Z" fill="#333333"/>
</svg>
