<svg width="139" height="138" viewBox="0 0 139 138" fill="none" xmlns="http://www.w3.org/2000/svg">
<g filter="url(#filter0_d_3082_243)">
<path d="M69.8496 130C105.748 130 134.85 100.899 134.85 65C134.85 29.1015 105.748 0 69.8496 0C33.9511 0 4.84961 29.1015 4.84961 65C4.84961 100.899 33.9511 130 69.8496 130Z" fill="#FFFA91"/>
<path d="M132.85 65C132.85 99.7939 104.644 128 69.8496 128C35.0557 128 6.84961 99.7939 6.84961 65C6.84961 30.2061 35.0557 2 69.8496 2C104.644 2 132.85 30.2061 132.85 65Z" stroke="#333333" stroke-width="4"/>
</g>
<path d="M37 50.3331L62.7932 79L105 36" stroke="#333333" stroke-width="10" stroke-linecap="round" stroke-linejoin="round"/>
<path d="M37.824 97.384L38.208 98.776C39.252 98.752 41.016 98.704 42.384 98.512C43.308 98.38 44.268 98.224 45.012 98.032C45.204 97.984 45.528 97.9 45.936 97.792L44.94 96.472C44.34 96.76 43.128 97.024 41.916 97.204C40.596 97.396 38.748 97.408 37.824 97.384ZM38.34 105.664L39.876 106.696C42.192 105.304 42.984 103.252 42.984 100.828C42.984 100.828 42.984 99.232 42.984 98.2L41.412 98.38C41.412 100.084 41.412 100.864 41.412 100.864C41.412 103.108 40.464 104.692 38.34 105.664ZM36.924 100.264V101.812C37.236 101.788 37.68 101.764 38.052 101.764C38.76 101.764 45.288 101.764 46.044 101.764C46.38 101.764 46.776 101.788 47.1 101.812V100.264C46.836 100.288 46.272 100.324 46.02 100.324C45.216 100.324 38.796 100.324 38.04 100.324C37.656 100.324 37.26 100.288 36.924 100.264ZM50.352 99.508V101.008C50.616 100.984 51.048 100.972 51.312 100.972H56.796C57.072 100.972 57.432 100.984 57.732 101.008V99.508C57.444 99.544 57.096 99.568 56.796 99.568H51.312C51.048 99.568 50.616 99.544 50.352 99.508ZM53.172 105.64H54.744V100.324H53.172V105.64ZM49.752 104.752V106.324C50.064 106.288 50.436 106.276 50.736 106.276H57.36C57.576 106.276 58.02 106.288 58.272 106.324V104.752C58.02 104.788 57.696 104.824 57.36 104.824H50.736C50.424 104.824 50.052 104.8 49.752 104.752ZM66.048 98.884L64.632 99.352C64.92 99.976 65.448 101.428 65.604 102.004L67.032 101.512C66.864 100.96 66.276 99.388 66.048 98.884ZM70.476 99.748L68.796 99.208C68.664 100.72 68.076 102.316 67.26 103.324C66.276 104.572 64.596 105.484 63.288 105.844L64.548 107.128C65.952 106.588 67.44 105.592 68.556 104.14C69.372 103.096 69.888 101.848 70.2 100.636C70.272 100.396 70.344 100.144 70.476 99.748ZM63.264 99.508L61.824 100.036C62.112 100.552 62.724 102.16 62.916 102.796L64.38 102.256C64.152 101.584 63.564 100.12 63.264 99.508ZM82.788 98.548L81.552 97.78C81.288 97.876 80.88 97.924 80.508 97.924C80.136 97.924 77.616 97.924 77.088 97.924L76.536 99.292H80.58C80.388 100.18 79.692 101.62 78.876 102.556C77.82 103.744 76.488 104.788 74.04 105.532L75.456 106.792C77.712 105.904 79.152 104.8 80.292 103.408C81.384 102.076 82.068 100.48 82.392 99.4C82.488 99.1 82.656 98.776 82.788 98.548ZM78.876 96.64L77.112 96.064C77.004 96.484 76.752 97.036 76.572 97.324C75.984 98.356 74.928 99.904 72.828 101.188L74.172 102.184C75.9 101.008 77.328 99.316 78.144 97.864C78.276 97.612 78.588 97.06 78.876 96.64ZM84.744 101.344L85.488 102.856C87.384 102.292 89.328 101.392 90.684 100.588C92.1 99.736 93.564 98.608 94.656 97.504L93.36 96.28C92.58 97.228 91.212 98.428 89.988 99.184C88.644 100.012 86.892 100.792 84.744 101.344ZM89.736 99.964V104.968C89.736 105.496 89.688 106.252 89.64 106.54H91.548C91.464 106.24 91.44 105.496 91.44 104.968V99.556L89.736 99.964ZM98.892 96.88L97.752 98.092C98.628 98.692 100.14 100 100.764 100.672L101.988 99.424C101.28 98.692 99.72 97.444 98.892 96.88ZM97.38 104.872L98.4 106.456C100.08 106.168 101.628 105.508 102.852 104.776C104.784 103.612 106.38 101.956 107.28 100.324L106.356 98.644C105.588 100.264 104.028 102.088 101.976 103.312C100.812 103.996 99.264 104.608 97.38 104.872Z" fill="black"/>
<defs>
<filter id="filter0_d_3082_243" x="0.849609" y="0" width="138" height="138" filterUnits="userSpaceOnUse" color-interpolation-filters="sRGB">
<feFlood flood-opacity="0" result="BackgroundImageFix"/>
<feColorMatrix in="SourceAlpha" type="matrix" values="0 0 0 0 0 0 0 0 0 0 0 0 0 0 0 0 0 0 127 0" result="hardAlpha"/>
<feOffset dy="4"/>
<feGaussianBlur stdDeviation="2"/>
<feComposite in2="hardAlpha" operator="out"/>
<feColorMatrix type="matrix" values="0 0 0 0 0 0 0 0 0 0 0 0 0 0 0 0 0 0 0.25 0"/>
<feBlend mode="normal" in2="BackgroundImageFix" result="effect1_dropShadow_3082_243"/>
<feBlend mode="normal" in="SourceGraphic" in2="effect1_dropShadow_3082_243" result="shape"/>
</filter>
</defs>
</svg>
