<svg width="140" height="139" viewBox="0 0 140 139" fill="none" xmlns="http://www.w3.org/2000/svg">
<g filter="url(#filter0_d_895_7007)">
<path d="M69.9296 130.16C105.872 130.16 135.01 101.023 135.01 65.08C135.01 29.1373 105.872 0 69.9296 0C33.9869 0 4.84961 29.1373 4.84961 65.08C4.84961 101.023 33.9869 130.16 69.9296 130.16Z" fill="#FFFA91"/>
<path d="M133.01 65.08C133.01 99.9181 104.768 128.16 69.9296 128.16C35.0915 128.16 6.84961 99.9181 6.84961 65.08C6.84961 30.2419 35.0915 2 69.9296 2C104.768 2 133.01 30.2419 133.01 65.08Z" stroke="#333333" stroke-width="4"/>
</g>
<path d="M47.594 31.134C46.744 33.14 45.146 35.792 43.786 37.594L47.118 38.716C48.58 37.118 50.484 34.636 52.116 32.256L47.594 31.134ZM56.094 34.16C58.95 36.336 62.452 39.532 64.05 41.64L67.552 39.566C65.784 37.39 62.146 34.33 59.324 32.324L56.094 34.16ZM38.72 36.608L39.162 40.212C45.418 40.042 54.7 39.702 63.336 39.294L63.472 35.928C54.632 36.234 44.942 36.472 38.72 36.608ZM37.564 42.116V45.55H68.538V42.116H37.564ZM53.544 46.604C51.504 47.896 47.492 49.12 44.398 49.732C45.214 50.378 46.132 51.398 46.642 52.112C50.008 51.33 54.02 49.97 56.672 48.134L53.544 46.604ZM56.672 50.344C53.952 52.316 48.614 53.812 44.092 54.526C44.908 55.308 45.792 56.532 46.268 57.416C51.232 56.362 56.536 54.56 59.868 51.874L56.672 50.344ZM60.752 53.948C57.114 57.45 49.702 59.116 41.814 59.796C42.528 60.714 43.31 62.108 43.684 63.162C52.354 62.108 59.868 60.068 64.322 55.546L60.752 53.948ZM48.648 38.58C46.574 44.53 42.222 48.916 36.374 51.364C37.258 52.078 38.754 53.676 39.332 54.492C45.316 51.5 50.11 46.468 52.66 39.532L48.648 38.58ZM59.12 42.932L55.72 44.19C58.202 48.406 62.282 52.18 66.634 54.22C67.212 53.268 68.402 51.772 69.286 51.024C65.172 49.426 61.126 46.264 59.12 42.932ZM90.808 56.056V60H99.546V56.056H90.808ZM71.666 37.22V41.232H84.144V37.22H71.666ZM89.006 35.01V62.38H92.916V38.954H97.268V62.108H101.382V35.01H89.006ZM83.124 37.22V38.138C82.886 51.874 82.614 56.77 81.9 57.79C81.56 58.266 81.254 58.436 80.744 58.402C80.098 58.402 78.874 58.402 77.514 58.266C78.194 59.422 78.636 61.19 78.704 62.38C80.268 62.448 81.798 62.448 82.818 62.21C83.94 62.006 84.654 61.598 85.436 60.476C86.524 58.878 86.762 53.642 87.068 39.09C87.068 38.58 87.068 37.22 87.068 37.22H83.124ZM75.712 31.61C75.678 44.054 75.95 54.084 70.646 60.068C71.666 60.714 73.026 62.074 73.672 63.06C79.554 56.294 79.69 45.006 79.724 31.61H75.712ZM58.202 72.596H53.272C53.34 73.038 53.476 74.194 53.578 75.554C53.714 77.356 53.714 83.884 53.714 85.992L57.964 87.42C57.93 84.7 57.862 77.764 57.964 75.52C57.998 74.976 58.1 73.174 58.202 72.596ZM38.958 76.846L39.06 80.926C44.194 80.654 50.96 80.382 57.148 80.382C62.146 80.382 65.614 80.484 67.722 80.586L67.79 76.574C65.886 76.54 60.718 76.574 57.25 76.574C53 76.574 44.024 76.846 38.958 76.846ZM57.386 86.91L54.19 86.026C55.278 90.072 53.884 91.432 52.286 91.432C50.892 91.432 49.634 90.446 49.634 88.916C49.634 87.114 50.96 86.196 52.286 86.196C53.782 86.196 54.972 87.25 54.972 89.46C54.972 95.41 50.45 97.688 44.67 98.946L48.274 102.55C56.57 100.204 59.188 94.594 59.188 90.14C59.188 85.924 56.842 82.626 52.354 82.626C48.682 82.626 45.554 85.142 45.554 88.984C45.554 93.132 48.818 95.206 51.436 95.206C55.346 95.206 57.386 92.452 57.386 86.91ZM77.48 74.126L77.616 78.546C78.398 78.41 79.452 78.342 80.37 78.274C82.206 78.138 86.898 77.968 88.632 77.9C86.966 79.396 83.396 82.252 81.492 83.816C79.52 85.482 75.406 88.95 72.992 90.854L76.086 94.05C79.724 89.936 83.09 87.148 88.326 87.148C92.304 87.148 95.364 89.222 95.364 92.316C95.364 95.954 92.44 98.13 86.694 98.13C84.62 98.13 83.226 97.28 83.226 96.022C83.226 95.138 84.076 94.356 85.334 94.356C87.34 94.356 88.632 96.056 88.7 98.504L92.678 97.994C92.576 94.254 89.992 91.126 85.334 91.126C81.73 91.126 79.214 93.642 79.214 96.396C79.214 99.83 82.784 101.972 87.51 101.972C95.738 101.972 99.818 97.722 99.818 92.35C99.818 87.42 95.432 83.816 89.652 83.816C88.598 83.816 87.578 83.884 86.422 84.19C88.598 82.49 92.168 79.498 94.004 78.206C94.752 77.628 95.568 77.152 96.35 76.642L94.174 73.582C93.766 73.718 92.984 73.854 91.556 73.956C89.618 74.126 82.376 74.296 80.54 74.296C79.588 74.296 78.432 74.228 77.48 74.126Z" fill="#333333"/>
<defs>
<filter id="filter0_d_895_7007" x="0.849609" y="0" width="138.16" height="138.16" filterUnits="userSpaceOnUse" color-interpolation-filters="sRGB">
<feFlood flood-opacity="0" result="BackgroundImageFix"/>
<feColorMatrix in="SourceAlpha" type="matrix" values="0 0 0 0 0 0 0 0 0 0 0 0 0 0 0 0 0 0 127 0" result="hardAlpha"/>
<feOffset dy="4"/>
<feGaussianBlur stdDeviation="2"/>
<feComposite in2="hardAlpha" operator="out"/>
<feColorMatrix type="matrix" values="0 0 0 0 0 0 0 0 0 0 0 0 0 0 0 0 0 0 0.25 0"/>
<feBlend mode="normal" in2="BackgroundImageFix" result="effect1_dropShadow_895_7007"/>
<feBlend mode="normal" in="SourceGraphic" in2="effect1_dropShadow_895_7007" result="shape"/>
</filter>
</defs>
</svg>
